<svg width="256" height="256" viewBox="0 0 256 256" fill="none" xmlns="http://www.w3.org/2000/svg">
<path opacity="0.945098" d="M52.25 22.5L58.75 23C61.6833 24.1 63.9333 25.85 65.5 28.25L73.5 49.25L74.75 51L129.75 29.5C131.35 28.7333 133.517 28.5667 136.25 29L140 31.75L162.5 90L176.75 84.5H182.75C185.35 85.2667 187.433 86.5167 189 88.25L193.5 97.75L218 162.75L220.75 168.5C223.083 166.833 226.083 165.833 229.75 165.5L232.5 167.75L233 169.75L230.75 173L155.5 202.25L156 203.25V211.75C154.433 219.183 151.017 224.767 145.75 228.5C143.183 230.6 140.017 232.1 136.25 233L126.75 233.5C119.683 232.233 114.267 229.317 110.5 224.75C106.333 220.583 104.167 214.417 104 206.25L104.5 205.75L105 200.25L108 193.75L114.75 186.5L117 185.5L87.75 108.75L58.5 32L55.75 30.5H53.25L30.75 39.5L26.75 40.5L23.5 38.25L23 35.75L24.75 33L52.25 22.5ZM133 37L118.5 43L125 59.5V62.5L122 66.5L120.5 67.5H117L114 70H110.5L107.5 72.5H104.5L100.5 71.5L98.5 69.5L92.5 52.5L77.5 58L78.5 62.5L98.5 114.5L155 93L134 38.5C134.333 37.1667 134 36.6667 133 37ZM111 45.5L100 49.5L105.5 63.5L108 61.5C109.333 61.1667 110.333 61.3333 111 62C111.667 60.3333 113.167 59.3333 115.5 59L116 59.5L115 55.5L111 45.5ZM178.5 92.5L161.5 99.5L170 121L171 124V127L165 133C163 133.667 160.667 133.833 158 133.5C157 135.5 155.333 136.833 153 137.5H147.5L143 141.5H135.5L134 141L131.5 139L122.5 114.5H121L104.5 121L102.5 124.5L124.5 182L127.5 181.5H133.5L138.5 183L200.5 159.5L207 156.5L183.5 94.5C182.833 92.5 181.167 91.8333 178.5 92.5ZM153.5 102L130 111L138 133.5H140C141.333 131.5 143.333 130 146 129L148 129.5H150.5L155 125.5L156.5 125C158.167 124.667 159.333 124.833 160 125.5C161.667 125.5 162.5 125 162.5 124L154.5 103L153.5 102ZM210 164L147.5 188.5L153 194.5L210 172.5L212 169.5L210 164ZM128 189.5C124.333 190.167 121.5 191.333 119.5 193L114 199.5L112 206.5C112 211.5 113.167 215.5 115.5 218.5C118.167 221.833 122.167 224.167 127.5 225.5L135.5 225L142 221.5C145 218.833 147 215.333 148 211C148.333 207.333 148.167 204.5 147.5 202.5L143.5 195.5C140.167 191.5 135 189.5 128 189.5Z" fill="#38B5AF" stroke="black" stroke-width="0.1"/>
<path opacity="0.945098" d="M111.25 123.5C114.117 123.134 115.867 123.884 116.5 125.75L118.5 131.25V133.25L116.75 135.5L113.25 136L111 134.25L109 129.75L108.5 126.75L109.5 124.5L111.25 123.5Z" fill="#38B5AF" stroke="black" stroke-width="0.1"/>
<path opacity="0.945098" d="M117.75 140.5C120.75 140 122.5 140.75 123 142.75L133 168.75L133.5 173.25C133 175.25 131.25 176 128.25 175.5L126 173.75L115 145.25V143.75L116.75 141L117.75 140.5Z" fill="#38B5AF" stroke="black" stroke-opacity="0.01"/>
<path opacity="0.945098" d="M128.249 195.5C133.582 195.334 137.332 196.75 139.499 199.75C141.766 201.817 142.599 205.317 141.999 210.25C141.166 213.084 139.749 215.334 137.749 217C135.649 219.067 132.316 219.9 127.749 219.5C124.349 218.6 121.766 216.85 119.999 214.25C118.532 212.384 117.866 209.717 117.999 206.25C118.732 202.317 120.482 199.4 123.249 197.5L128.249 195.5ZM129.499 203.5L128.499 204L125.999 207.5L126.999 210.5L128.999 211.5L132.499 211L133.999 209L133.499 205.5C132.832 203.834 131.499 203.167 129.499 203.5Z" fill="#38B5AF" stroke="black" stroke-width="0.1"/>
</svg>

